<?xml version="1.0" standalone="no"?>
<svg version="1.0" xmlns="http://www.w3.org/2000/svg"
 width="303.5" height="200.0" viewBox="0 0 303.5 200.0">

  <line x1="0.0" y1="0" x2="0.0" y2="200.0" fill="none" stroke="#000" stroke-width="1"/>
  <line x1="20.0" y1="0" x2="20.0" y2="200.0" fill="none" stroke="#000" stroke-width="1"/>
  <line x1="40.0" y1="0" x2="40.0" y2="200.0" fill="none" stroke="#000" stroke-width="1"/>
  <line x1="60.0" y1="0" x2="60.0" y2="200.0" fill="none" stroke="#000" stroke-width="1"/>
  <line x1="87.125" y1="0" x2="87.125" y2="200.0" fill="none" stroke="#000" stroke-width="1"/>
  <line x1="102.125" y1="0" x2="102.125" y2="200.0" fill="none" stroke="#000" stroke-width="1"/>
  <line x1="117.125" y1="0" x2="117.125" y2="200.0" fill="none" stroke="#000" stroke-width="1"/>
  <line x1="132.125" y1="0" x2="132.125" y2="200.0" fill="none" stroke="#000" stroke-width="1"/>
  <line x1="159.25" y1="0" x2="159.25" y2="200.0" fill="none" stroke="#000" stroke-width="1"/>
  <line x1="171.25" y1="0" x2="171.25" y2="200.0" fill="none" stroke="#000" stroke-width="1"/>
  <line x1="183.25" y1="0" x2="183.25" y2="200.0" fill="none" stroke="#000" stroke-width="1"/>
  <line x1="195.25" y1="0" x2="195.25" y2="200.0" fill="none" stroke="#000" stroke-width="1"/>
  <line x1="222.375" y1="0" x2="222.375" y2="200.0" fill="none" stroke="#000" stroke-width="1"/>
  <line x1="232.375" y1="0" x2="232.375" y2="200.0" fill="none" stroke="#000" stroke-width="1"/>
  <line x1="242.375" y1="0" x2="242.375" y2="200.0" fill="none" stroke="#000" stroke-width="1"/>
  <line x1="252.375" y1="0" x2="252.375" y2="200.0" fill="none" stroke="#000" stroke-width="1"/>
  <line x1="279.5" y1="0" x2="279.5" y2="200.0" fill="none" stroke="#000" stroke-width="1"/>
  <line x1="287.5" y1="0" x2="287.5" y2="200.0" fill="none" stroke="#000" stroke-width="1"/>
  <line x1="295.5" y1="0" x2="295.5" y2="200.0" fill="none" stroke="#000" stroke-width="1"/>
  <line x1="303.5" y1="0" x2="303.5" y2="200.0" fill="none" stroke="#000" stroke-width="1"/>

</svg>
